<svg width="8" height="10" viewBox="0 0 8 10" fill="none" xmlns="http://www.w3.org/2000/svg">
<path d="M3.99551 0C1.78676 0 0 1.68502 0 3.76802C0 4.85185 0.574635 5.83408 1.14029 6.74009C1.83165 7.86635 2.65769 8.91623 3.61841 9.84765C3.82492 10.0508 4.1662 10.0508 4.38159 9.84765C5.22559 9.06018 5.97082 8.17109 6.59933 7.22274C7.27273 6.19809 8 5.01265 8 3.76802C7.99102 1.69349 6.20427 0 3.99551 0ZM3.99551 5.95262C2.65769 5.95262 1.57127 4.92806 1.57127 3.66641C1.57127 2.40476 2.65769 1.3802 3.99551 1.3802C5.33333 1.3802 6.41975 2.39629 6.41975 3.66641C6.41975 4.93653 5.33333 5.95262 3.99551 5.95262Z" fill="#F7CA60"/>
</svg>
