<svg width="160" height="62" viewBox="0 0 160 62" fill="none" xmlns="http://www.w3.org/2000/svg">
<path opacity="0.5" d="M-31.6504 -1L-77 63M-21.8916 -1L-67.2412 63M-12.1328 -1L-57.4824 63M-2.37399 -1L-47.7236 63M7.3848 -1L-37.9648 63M17.1435 -1L-28.2061 63M26.9023 -1L-18.4473 63M36.6611 -1L-8.68851 63M46.4199 -1L1.07028 63M56.1787 -1L10.8291 63M65.9375 -1L20.5879 63M75.6962 -1L30.3466 63M85.455 -1L40.1054 63M95.2139 -1L49.8642 63M104.973 -1L59.623 63M114.377 -1L69.0274 63M124.136 -1L78.7862 63M133.895 -1L88.545 63M143.653 -1L98.3038 63M153.412 -1L108.063 63M163.171 -1L117.821 63M172.93 -1L127.58 63M182.689 -1L137.339 63M192.447 -1L147.098 63M202.206 -1L156.856 63M211.965 -1L166.615 63M221.724 -1L176.374 63M231.482 -1L186.133 63M241.241 -1L195.892 63M251 -1L205.65 63" stroke="white"/>
</svg>
